<svg version="1.1" id="Layer_1" xmlns="http://www.w3.org/2000/svg" xmlns:xlink="http://www.w3.org/1999/xlink" x="0px" y="0px" viewBox="0 0 341.9 85.6" style="enable-background:new 0 0 341.9 85.6;" xml:space="preserve">
 <style type="text/css">
  .st0{fill:#F07523;}
	.st1{fill:#FFCC38;}
	.st2{fill:#FBAA26;}
	.st3{fill:#014944;}
 </style>
 <g>
  <polygon class="st0" points="0,0 0,24.5 55.7,24.5 55.7,11.4 	">
  </polygon>
  <polygon class="st1" points="119.1,24.5 55.7,0 55.7,11.4 	">
  </polygon>
  <polygon class="st2" points="55.7,24.5 119.1,24.5 55.7,11.4 	">
  </polygon>
  <polygon class="st1" points="264.7,55.4 119.2,24.5 264.7,73 	">
  </polygon>
  <path class="st3" d="M112.1,60.1h7v2.9c1.3-1.2,3.7-3.4,7.9-3.4c4.8,0,6.2,2.9,6.5,3.8c2.9-2.8,4.8-3.8,7.5-3.8
		c1.3,0,2.3,0.2,3.2,0.5c3.8,1.4,3.9,4.8,3.9,7v17.7H141V68.7c0-1.7-0.1-2.7-0.6-3.5c-0.1-0.2-0.8-1.4-2.6-1.4
		c-0.6,0-1.7,0.2-2.3,0.4c-2,0.9-2,2.6-2.1,3.9v16.7h-7v-16c0-1.9,0-5-3.1-5c-0.7,0-2,0.2-2.6,0.5c-1.7,1.1-1.8,2.7-1.7,4.9v15.7h-7
		V60.1z">
  </path>
  <path class="st3" d="M80.5,84.8h-7V69.7c0-1,0-1.8-0.1-2.6c0-0.8-0.3-3.4-3.4-3.4c-0.8,0-1.5,0.2-1.9,0.4c-2.1,1-2.1,2.6-2.2,4
		v16.7h-7V60.1h7v2.8c1.8-1.6,3.4-3.3,7.3-3.3c3.3,0,4.9,1.3,5.6,2.1c1.6,1.7,1.6,4,1.6,5.8V84.8z">
  </path>
  <path class="st3" d="M201.7,84.8h-7V69.7c0-1,0-1.8-0.1-2.6c-0.1-0.8-0.3-3.4-3.4-3.4c-0.8,0-1.5,0.2-1.9,0.4c-2.1,1-2.1,2.6-2.2,4
		v16.7h-7V60.1h7v2.8c1.8-1.6,3.4-3.3,7.3-3.3c3.3,0,4.9,1.3,5.6,2.1c1.5,1.7,1.5,4,1.6,5.8V84.8z">
  </path>
  <path class="st3" d="M168.6,76c-0.2,1.4-0.4,4.1-2.5,5.3c-0.6,0.3-1.2,0.4-1.9,0.4c-4,0-4.3-4.2-4.4-5.7c-0.1-1.1-0.2-2.3-0.2-3.4
		c0-1,0.1-2.4,0.2-4c0.1-1.3,0.4-3.8,2.4-5c0.7-0.3,1.4-0.5,2.1-0.5c3.8,0,4.1,4,4.2,5.5c0.1,1.1,0.2,2.2,0.2,3.2
		C168.8,73.3,168.8,74.6,168.6,76 M173.6,62.9c-3-3.5-7.2-3.5-8.7-3.5c-1.7,0-5.7,0.1-8.8,2.9c-3.6,3.2-3.6,8.2-3.6,10.7
		c0,4.8,1.1,9.9,7.2,11.7c1.8,0.5,2.7,0.6,4.5,0.6c1.7,0,5.9,0,9-3.5c2.8-3.1,2.8-7.7,2.8-9.9C176,69.8,176,65.7,173.6,62.9">
  </path>
  <path class="st3" d="M100.5,76.3c0,1.2,0,2.8-1.3,3.9c-1,0.9-2.5,1-3.1,1c-1.4,0-2.6-0.5-3.2-2.2c-0.1-0.6-0.2-1.1-0.2-1.6
		c0-2.6,1.7-3.7,3.7-4.2c1-0.2,1.7-0.3,4.1-0.5V76.3z M104.8,61.5c-1.1-1-2.2-1.4-3.7-1.6c-1.5-0.3-2.1-0.4-3.6-0.4
		c-4.5,0-7.9,0.8-9.9,4.3c-0.8,1.5-0.8,3-0.8,4.1H93c0.1-1,0.1-2.4,0.9-3.4c0.4-0.5,1.3-1.3,3.1-1.3c0.6,0,2.2,0,3,1.4
		c0.4,0.8,0.5,1.8,0.5,3v2l-4,0.4c-4.4,0.5-6,0.9-7.8,2.1c-3,2-3,5-3,6c0,2.4,0.7,4.3,1.7,5.3c1.3,1.5,3.5,2.1,5.5,2.1
		c5,0,7.3-2.3,7.3-2.3l0,1.6h6.7V67.9C106.9,66,107,63.3,104.8,61.5">
  </path>
  <path class="st3" d="M47.7,76.3c0,1.2-0.1,2.8-1.3,3.9c-1.1,0.9-2.5,1-3.1,1c-1.4,0-2.6-0.5-3.2-2.2c-0.1-0.6-0.2-1.1-0.2-1.6
		c0-2.6,1.7-3.7,3.7-4.2c1-0.2,1.7-0.3,4.1-0.5V76.3z M52,61.5c-1.1-1-2.1-1.4-3.7-1.6c-1.5-0.3-2.1-0.4-3.6-0.4
		c-4.5,0-7.9,0.8-9.9,4.3c-0.8,1.5-0.8,3-0.8,4.1h6.2c0.1-1,0.1-2.4,0.9-3.4c0.4-0.5,1.3-1.3,3-1.3c0.6,0,2.2,0,3,1.4
		c0.4,0.8,0.5,1.8,0.5,3v2l-4,0.4c-4.3,0.5-6,0.9-7.8,2.1c-3,2-3,5-3,6c0,2.4,0.7,4.3,1.7,5.3c1.3,1.5,3.4,2.1,5.5,2.1
		c5,0,7.4-2.3,7.4-2.3l0,1.6h6.7V67.9C54.1,66,54.2,63.3,52,61.5">
  </path>
  <path class="st3" d="M19.9,72.9C19.3,76,17.9,81,9.7,81c-2.2,0-1.7,0-1.7,0V54.5h3.7c2.1,0,3.8,0.2,5.7,2.3
		c1.3,1.5,2.8,4.8,2.8,10.2C20.3,69,20.3,70.9,19.9,72.9 M23.8,54.1c-3.4-3.7-7.8-4.2-11.6-4.2H0v35.7h12.3c11,0,15.9-4.9,15.9-18.3
		C28.2,63.7,27.2,57.7,23.8,54.1">
  </path>
  <polygon class="st0" points="119.2,24.5 264.6,24.6 264.6,55.4 	">
  </polygon>
  <polygon class="st2" points="264.6,24.6 264.6,55.4 341.9,73 341.9,24.6 	">
  </polygon>
 </g>
</svg>